<?xml version="1.0" encoding="UTF-8" standalone="no"?>
<!-- Created with Inkscape (http://www.inkscape.org/) -->

<svg
   width="23.928902mm"
   height="25.965548mm"
   viewBox="0 0 23.928902 25.965548"
   version="1.1"
   id="svg7036"
   xmlns:xlink="http://www.w3.org/1999/xlink"
   xmlns="http://www.w3.org/2000/svg"
   xmlns:svg="http://www.w3.org/2000/svg">
  <defs
     id="defs7033">
    <clipPath
       clipPathUnits="userSpaceOnUse"
       id="clipPath4022">
      <g
         id="g4026"
         transform="matrix(3.7795276,0,0,3.7795276,56.530175,-292.92651)">
        <rect
           x="12.295141"
           y="94.965973"
           width="310.35623"
           height="173.03749"
           id="rect4024"
           style="stroke-width:0.264583" />
      </g>
    </clipPath>
    <filter
       style="color-interpolation-filters:sRGB"
       id="filter6284"
       x="-0.016049769"
       y="-0.015271537"
       width="1.0373713"
       height="1.0411579">
      <feFlood
         flood-opacity="0.498039"
         flood-color="rgb(0,0,0)"
         result="flood"
         id="feFlood6274" />
      <feComposite
         in="flood"
         in2="SourceGraphic"
         operator="in"
         result="composite1"
         id="feComposite6276" />
      <feGaussianBlur
         in="composite1"
         stdDeviation="0.6"
         result="blur"
         id="feGaussianBlur6278" />
      <feOffset
         dx="1"
         dy="1"
         result="offset"
         id="feOffset6280" />
      <feComposite
         in="SourceGraphic"
         in2="offset"
         operator="over"
         result="composite2"
         id="feComposite6282" />
    </filter>
    <clipPath
       id="clip17">
      <rect
         x="1187"
         y="622"
         width="89"
         height="98"
         id="rect177" />
    </clipPath>
    <clipPath
       id="clip18">
      <rect
         x="1187"
         y="622"
         width="89"
         height="98"
         id="rect180" />
    </clipPath>
    <linearGradient
       xlink:href="#fill19"
       id="linearGradient5737"
       gradientUnits="userSpaceOnUse"
       x1="115.344"
       y1="93.449997"
       x2="115.344"
       y2="114.988"
       spreadMethod="pad" />
    <linearGradient
       x1="115.344"
       y1="93.449997"
       x2="115.344"
       y2="114.988"
       gradientUnits="userSpaceOnUse"
       spreadMethod="pad"
       id="fill19">
      <stop
         offset="0"
         stop-color="#333132"
         id="stop183" />
      <stop
         offset="1"
         stop-color="#5B5A5C"
         id="stop185" />
    </linearGradient>
  </defs>
  <g
     id="layer1"
     transform="translate(-110.20322,-169.37308)">
    <g
       clip-path="url(#clipPath4022)"
       id="g3768"
       transform="matrix(0.26458333,0,0,0.26458333,-203.47619,5.183246)"
       style="filter:url(#filter6284)">
      <g
         clip-path="url(#clip17)"
         id="g3766">
        <g
           clip-path="url(#clip18)"
           id="g3764">
          <path
             d="m 89.623,55.358 0.089,38.092 70.399,14.952 V 81.88 Z"
             fill="#767676"
             transform="matrix(1,0,0,1.00102,1116.42,566.585)"
             id="path3746" />
          <path
             d="m 89.623,55.358 -19.046,11.57 v 35.422 l 19.135,-8.9"
             fill="#999999"
             transform="matrix(1,0,0,1.00102,1116.42,566.585)"
             id="path3748" />
          <path
             d="m 121.752,93.984 6.408,1.78 V 75.027 l -6.408,-2.225 z m -6.408,-23.229 -6.408,-2.314 v 22.161 l 6.408,1.78 z m 19.224,26.7 6.23,1.691 0.178,-19.758 -6.408,-2.136 z m -38.359,-10.146 6.408,1.602 V 66.394 l -6.408,-2.136 z m 57.494,-3.56 -6.408,-2.225 v 19.313 l 6.408,1.78 z"
             fill="#a3a3a3"
             transform="matrix(1,0,0,1.00102,1116.42,566.585)"
             id="path3750" />
          <path
             d="M 77.074,92.827 73.87,94.696 V 69.509 l 3.204,-1.691 z M 83.393,64.169 80.1,66.305 V 90.78 L 83.393,89 Z"
             fill="#b3b3b3"
             transform="matrix(1,0,0,1.00102,1116.42,566.585)"
             id="path3752" />
          <path
             d="m 160.111,108.402 -19.224,6.586 -70.31,-12.638 19.135,-8.9 z"
             fill="url(#fill19)"
             transform="matrix(1,0,0,1.00102,1116.42,566.585)"
             id="path3754"
             style="fill:url(#linearGradient5737)" />
          <path
             d="m 160.111,135.547 -70.755,13.439 0.356,-49.751 70.399,13.083 z"
             fill="#767676"
             transform="matrix(1,0,0,1.00102,1116.42,566.585)"
             id="path3756" />
          <path
             d="m 96.209,140.798 v -31.595 l 6.408,0.801 v 29.726 z m 19.135,-3.204 -6.408,1.157 v -27.946 l 6.408,0.979 z m 6.408,-0.979 v -24.208 l 6.408,0.801 v 22.25 z m 19.135,-3.382 -6.319,1.157 v -20.381 l 6.319,0.979 z m 12.994,-2.047 -6.586,1.157 v -16.732 l 6.141,0.801 z"
             fill="#a3a3a3"
             transform="matrix(1,0,0,1.00102,1116.42,566.585)"
             id="path3758" />
          <path
             d="M 70.577,137.594 V 108.58 l 19.224,-8.9 v 49.84 z"
             fill="#999999"
             transform="matrix(1,0,0,1.00102,1116.42,566.585)"
             id="path3760" />
          <path
             d="m 76.629,137.505 -2.848,-1.424 v -24.564 l 2.848,-1.335 z M 83.482,106.8 80.1,108.491 v 30.972 l 3.293,1.691 V 106.8 Z"
             fill="#b3b3b3"
             transform="matrix(1,0,0,1.00102,1116.42,566.585)"
             id="path3762" />
        </g>
      </g>
    </g>
  </g>
</svg>
