<?xml version="1.0" encoding="UTF-8" standalone="no"?>
<!-- Created with Inkscape (http://www.inkscape.org/) -->

<svg
   width="67.48423mm"
   height="38.316833mm"
   viewBox="0 0 67.48423 38.316833"
   version="1.1"
   id="svg5"
   sodipodi:docname="docker.svg"
   inkscape:version="1.1 (c68e22c387, 2021-05-23)"
   xmlns:inkscape="http://www.inkscape.org/namespaces/inkscape"
   xmlns:sodipodi="http://sodipodi.sourceforge.net/DTD/sodipodi-0.dtd"
   xmlns:xlink="http://www.w3.org/1999/xlink"
   xmlns="http://www.w3.org/2000/svg"
   xmlns:svg="http://www.w3.org/2000/svg">
  <sodipodi:namedview
     id="namedview972"
     pagecolor="#ffffff"
     bordercolor="#666666"
     borderopacity="1.0"
     inkscape:pageshadow="2"
     inkscape:pageopacity="1"
     inkscape:pagecheckerboard="0"
     inkscape:document-units="mm"
     showgrid="false"
     inkscape:zoom="4.4421181"
     inkscape:cx="127.52925"
     inkscape:cy="72.375384"
     inkscape:window-width="1920"
     inkscape:window-height="1017"
     inkscape:window-x="1912"
     inkscape:window-y="-8"
     inkscape:window-maximized="1"
     inkscape:current-layer="svg5" />
  <defs
     id="defs2">
    <clipPath
       id="clipPath8">
      <path
         d="M 76,2 V 48 H 54 V 71 H 35.580737 c -0.07818,0.665694 -0.141485,1.332869 -0.205737,2 -1.151162,12.530963 1.036422,24.087546 6.0625,33.96875 L 43.125,110 c 1.011403,1.81678 2.191241,3.52297 3.4375,5.1875 1.244725,1.66248 1.685716,2.58262 2.46875,3.6875 C 62.319911,133.81083 82.129473,141 105,141 155.64836,141 198.63299,118.56201 217.65625,68.15625 231.15302,69.54122 244.09968,66.080358 250,54.5625 240.60137,49.138835 228.52163,50.877226 221.5625,54.375 L 240,2 168,48 H 145 V 2 Z"
         id="path10" />
    </clipPath>
    <clipPath
       id="clipPath855">
      <path
         d="M 76,2 V 48 H 54 V 71 H 35.580737 c -0.07818,0.665694 -0.141485,1.332869 -0.205737,2 -1.151162,12.530963 1.036422,24.087546 6.0625,33.96875 L 43.125,110 c 1.011403,1.81678 2.191241,3.52297 3.4375,5.1875 1.244725,1.66248 1.685716,2.58262 2.46875,3.6875 C 62.319911,133.81083 82.129473,141 105,141 155.64836,141 198.63299,118.56201 217.65625,68.15625 231.15302,69.54122 244.09968,66.080358 250,54.5625 240.60137,49.138835 228.52163,50.877226 221.5625,54.375 L 240,2 168,48 H 145 V 2 Z"
         id="path853" />
    </clipPath>
    <clipPath
       id="clipPath859">
      <path
         d="M 76,2 V 48 H 54 V 71 H 35.580737 c -0.07818,0.665694 -0.141485,1.332869 -0.205737,2 -1.151162,12.530963 1.036422,24.087546 6.0625,33.96875 L 43.125,110 c 1.011403,1.81678 2.191241,3.52297 3.4375,5.1875 1.244725,1.66248 1.685716,2.58262 2.46875,3.6875 C 62.319911,133.81083 82.129473,141 105,141 155.64836,141 198.63299,118.56201 217.65625,68.15625 231.15302,69.54122 244.09968,66.080358 250,54.5625 240.60137,49.138835 228.52163,50.877226 221.5625,54.375 L 240,2 168,48 H 145 V 2 Z"
         id="path857" />
    </clipPath>
    <clipPath
       id="clipPath863">
      <path
         d="M 76,2 V 48 H 54 V 71 H 35.580737 c -0.07818,0.665694 -0.141485,1.332869 -0.205737,2 -1.151162,12.530963 1.036422,24.087546 6.0625,33.96875 L 43.125,110 c 1.011403,1.81678 2.191241,3.52297 3.4375,5.1875 1.244725,1.66248 1.685716,2.58262 2.46875,3.6875 C 62.319911,133.81083 82.129473,141 105,141 155.64836,141 198.63299,118.56201 217.65625,68.15625 231.15302,69.54122 244.09968,66.080358 250,54.5625 240.60137,49.138835 228.52163,50.877226 221.5625,54.375 L 240,2 168,48 H 145 V 2 Z"
         id="path861" />
    </clipPath>
    <clipPath
       id="clipPath867">
      <path
         d="M 76,2 V 48 H 54 V 71 H 35.580737 c -0.07818,0.665694 -0.141485,1.332869 -0.205737,2 -1.151162,12.530963 1.036422,24.087546 6.0625,33.96875 L 43.125,110 c 1.011403,1.81678 2.191241,3.52297 3.4375,5.1875 1.244725,1.66248 1.685716,2.58262 2.46875,3.6875 C 62.319911,133.81083 82.129473,141 105,141 155.64836,141 198.63299,118.56201 217.65625,68.15625 231.15302,69.54122 244.09968,66.080358 250,54.5625 240.60137,49.138835 228.52163,50.877226 221.5625,54.375 L 240,2 168,48 H 145 V 2 Z"
         id="path865" />
    </clipPath>
  </defs>
  <g
     id="layer1"
     transform="translate(-54.786727,-21.179323)">
    <path
       d="m 93.809487,33.279125 h 6.049963 v 6.184564 h 3.05905 c 1.41263,0 2.86563,-0.251664 4.20344,-0.704967 0.65735,-0.222895 1.39519,-0.53308 2.04362,-0.923184 -0.85404,-1.115049 -1.29006,-2.522998 -1.41844,-3.910822 -0.17429,-1.887606 0.20646,-4.344569 1.48404,-5.821949 l 0.63596,-0.735572 0.75782,0.609175 c 1.90801,1.532927 3.51264,3.674887 3.79547,6.116687 2.29741,-0.675775 4.9947,-0.515937 7.01976,0.65282 l 0.83079,0.479377 -0.43729,0.853467 c -1.71262,3.34258 -5.29299,4.377993 -8.79344,4.194773 -5.238,13.046178 -16.641715,19.222664 -30.468666,19.222664 -7.143458,0 -13.697438,-2.670366 -17.429573,-9.00825 -0.218815,-0.393695 -0.406197,-0.805365 -0.604923,-1.209707 -1.261569,-2.78982 -1.68058,-5.846038 -1.396327,-8.899706 l 0.0853,-0.914683 h 5.173381 v -6.184564 h 6.049963 v -6.049963 h 12.099924 v -6.049962 h 7.260079 v 12.099925"
       id="path14"
       style="fill:#394d54;stroke-width:0.264583" />
    <g
       clip-path="url(#clipPath8)"
       id="g16"
       transform="matrix(0.26458333,0,0,0.26458333,54.786727,21.1792)">
      <g
         id="g18">
        <g
           transform="translate(0,-22.866)"
           id="g20">
          <path
             d="m 123.85901,3.8110794 h 19.81751 V 23.62805 h -19.81751 z"
             id="path22"
             style="fill:#00acd3" />
          <path
             d="m 123.85901,26.676485 h 19.81751 v 19.818043 h -19.81751 z"
             id="path24"
             style="fill:#20c2ef" />
          <path
             d="M 126.29235,21.976904 V 5.4611548 M 129.2642,21.976904 V 5.4611548 m 3.00184,16.5157492 V 5.4611548 m 3.00344,16.5157492 V 5.4611548 M 138.2724,21.976904 V 5.4611548 m 2.97131,16.5157492 V 5.4611548"
             id="path26"
             style="stroke:#394d54;stroke-width:1.56" />
          <use
             transform="translate(0,22.866)"
             id="use28"
             xlink:href="#path26"
             x="0"
             y="0"
             width="100%"
             height="100%" />
        </g>
        <use
           transform="matrix(1,0,0,-1,22.866,4.572651)"
           id="use30"
           xlink:href="#g20"
           x="0"
           y="0"
           width="100%"
           height="100%" />
      </g>
      <use
         transform="translate(-91.464,45.732)"
         id="use32"
         xlink:href="#g18"
         x="0"
         y="0"
         width="100%"
         height="100%" />
      <use
         transform="translate(-45.732,45.732)"
         id="use34"
         xlink:href="#g18"
         x="0"
         y="0"
         width="100%"
         height="100%" />
      <use
         transform="translate(0,45.732)"
         id="use36"
         xlink:href="#g18"
         x="0"
         y="0"
         width="100%"
         height="100%" />
    </g>
    <path
       d="m 221.57014,54.379649 c 1.53332,-11.915247 -7.38383,-21.274779 -12.91407,-25.71836 -6.37269,7.367765 -7.36295,26.677556 2.63498,34.807431 -5.57952,4.956117 -17.33731,9.448435 -29.37574,9.448435 L 34,72.917155 C 32.829255,85.484184 34,146 34,146 h 217 l -0.98657,-91.424 c -9.39863,-5.423665 -21.48419,-3.694326 -28.44332,-0.196552"
       clip-path="url(#clipPath8)"
       id="path38"
       style="fill:#17b5eb"
       transform="matrix(0.26458333,0,0,0.26458333,54.786727,21.1792)" />
    <path
       d="m 34,89 v 57 H 251 V 89"
       clip-path="url(#clipPath8)"
       id="path40"
       style="fill-opacity:0.17"
       transform="matrix(0.26458333,0,0,0.26458333,54.786727,21.1792)" />
    <path
       d="M 111.23736,140.88997 C 97.697741,134.4648 90.265707,125.73081 86.130611,116.19562 L 45,118 l 21,28 45.23736,-5.11003"
       clip-path="url(#clipPath8)"
       id="path42"
       style="fill:#d4edf1"
       transform="matrix(0.26458333,0,0,0.26458333,54.786727,21.1792)" />
    <path
       d="m 222.5,53.9375 v 0.03125 c -20.86119,26.889144 -50.78312,50.37872 -82.90625,62.71875 -28.65478,11.00767 -53.638381,11.06039 -70.875,2.21875 -1.85607,-1.04832 -3.675701,-2.21152 -5.5,-3.3125 C 50.582097,106.76175 43.464274,92.152308 44.0625,72.90625 H 34 V 146 H 251 V 50 h -25 z"
       clip-path="url(#clipPath8)"
       id="path44"
       style="fill-opacity:0.085"
       transform="matrix(0.26458333,0,0,0.26458333,54.786727,21.1792)" />
    <path
       d="m 66.858341,52.143718 c 3.747864,0.205134 7.747649,0.241916 11.236524,-0.851628"
       id="path46"
       style="fill:none;stroke:#394d54;stroke-width:0.899583;stroke-linecap:round" />
    <path
       d="m 81.819269,49.478837 c 0,0.798772 -0.647575,1.446348 -1.446347,1.446348 -0.798913,0 -1.44663,-0.647576 -1.44663,-1.446348 0,-0.798769 0.647717,-1.44663 1.44663,-1.44663 0.798772,0 1.446347,0.647861 1.446347,1.44663 z"
       id="path48"
       style="fill:#d4edf1;stroke-width:0.264583" />
    <path
       d="m 80.748006,48.512716 c -0.126256,0.07298 -0.211702,0.20972 -0.211702,0.366157 0,0.233524 0.189314,0.422556 0.422838,0.422556 0.159981,0 0.298991,-0.08885 0.370833,-0.220065 0.05073,0.122291 0.07893,0.256622 0.07893,0.397473 0,0.572051 -0.46379,1.035839 -1.035981,1.035839 -0.572049,0 -1.036121,-0.463788 -1.036121,-1.035839 0,-0.572331 0.464072,-1.036262 1.036121,-1.036262 0.13235,0 0.258606,0.02495 0.375084,0.07014 z"
       id="path50"
       style="fill:#394d54;stroke-width:0.264583" />
    <path
       d="m 54.786727,45.034653 h 67.290803 c -1.4652,-0.371683 -4.63577,-0.873732 -4.11289,-2.793929 -2.66413,3.082858 -9.08916,2.16279 -10.71065,0.642616 -1.80571,2.618928 -12.31755,1.623475 -13.050715,-0.416744 -2.263683,2.65662 -9.278192,2.65662 -11.542014,0 -0.733449,2.040219 -11.245151,3.035672 -13.050995,0.416744 -1.621491,1.520174 -8.045955,2.440242 -10.710369,-0.642616 0.522879,1.920197 -2.647693,2.422246 -4.11317,2.793929"
       id="path52"
       style="fill:#394d54;stroke-width:0.264583" />
  </g>
</svg>
