<?xml version="1.0" standalone="no"?>
<!DOCTYPE svg PUBLIC "-//W3C//DTD SVG 20010904//EN"
 "http://www.w3.org/TR/2001/REC-SVG-20010904/DTD/svg10.dtd">
<svg version="1.0" xmlns="http://www.w3.org/2000/svg"
 width="700.000000pt" height="700.000000pt" viewBox="0 0 700.000000 700.000000"
 preserveAspectRatio="xMidYMid meet">
<metadata>
Created by potrace 1.14, written by Peter Selinger 2001-2017
</metadata>
<g transform="translate(0.000000,700.000000) scale(0.100000,-0.100000)"
fill="#000000" stroke="none">
<path d="M3308 6995 c-2 -1 -45 -6 -95 -9 -51 -4 -103 -9 -115 -11 -13 -2 -44
-7 -70 -9 -205 -24 -460 -86 -700 -170 -276 -97 -594 -262 -845 -438 -250
-176 -593 -502 -738 -702 -16 -23 -32 -43 -35 -46 -27 -24 -206 -296 -262
-400 -20 -36 -47 -86 -61 -112 -108 -197 -264 -630 -303 -838 -2 -14 -7 -36
-10 -50 -10 -41 -12 -53 -29 -166 -23 -154 -23 -159 -32 -254 -14 -160 -7
-568 11 -691 2 -13 7 -46 10 -74 3 -27 9 -63 11 -80 3 -16 10 -57 16 -90 32
-184 118 -477 200 -675 52 -129 161 -352 204 -420 14 -22 25 -42 25 -45 0 -6
172 -264 195 -293 7 -9 49 -62 93 -117 44 -55 101 -122 127 -150 25 -27 57
-61 69 -75 45 -50 239 -231 312 -290 110 -89 354 -259 459 -318 185 -104 433
-217 620 -281 116 -41 378 -111 465 -126 14 -2 52 -9 85 -14 33 -6 78 -13 100
-15 22 -3 56 -7 75 -10 240 -30 682 -27 885 8 17 3 50 8 75 11 25 4 79 13 120
21 41 8 86 17 100 20 136 27 443 127 609 198 1048 453 1809 1382 2045 2496 8
41 18 89 20 105 13 81 17 102 21 125 5 30 15 125 25 240 7 90 5 510 -4 547 -2
12 -7 56 -11 98 -3 43 -17 137 -30 209 -30 164 -30 164 -60 280 -123 474 -346
916 -663 1313 -91 114 -352 382 -462 475 -394 332 -867 578 -1370 712 -52 14
-106 27 -120 30 -14 3 -59 12 -100 20 -41 8 -95 17 -120 21 -25 3 -52 8 -60
10 -8 2 -48 7 -89 10 -41 4 -88 9 -105 11 -32 5 -483 13 -488 9z"/>
</g>
</svg>
