<?xml version="1.0" encoding="UTF-8" standalone="no"?>
<!-- Generator: Adobe Illustrator 15.1.0, SVG Export Plug-In . SVG Version: 6.00 Build 0)  -->

<svg xmlns="http://www.w3.org/2000/svg" viewBox="0 0 24 24" fit="" height="100%" width="100%" preserveAspectRatio="xMidYMid meet" focusable="false">
<g
     id="f"
     transform="translate(-30.71,-32.867)"><path
       inkscape:connector-curvature="0"
       id="path11"
       d="m 106.906,59.539 c -0.101,0 -0.201,-0.015 -0.301,-0.048 -0.509,-0.166 -0.451,-0.714 -0.619,-1.221 -2.397,-7.246 -8.221,-14.329 -12.797,-16.288 -0.492,-0.212 -1.058,-0.054 -1.253,-0.552 -0.192,-0.499 0.054,-1.059 0.552,-1.253 4.432,-1.72 11.44,-5.421 13.858,-7.131 0.269,-0.19 0.617,-0.229 0.922,-0.107 0.306,0.123 0.527,0.394 0.589,0.717 0.308,1.632 2.922,16.208 -0.031,25.217 -0.135,0.407 -0.513,0.666 -0.92,0.666 z"
       style="fill:#331211" /><path
       inkscape:connector-curvature="0"
       id="path13"
       d="m 33.164,59.539 c -0.407,0 -0.786,-0.259 -0.92,-0.666 -2.955,-9.017 -0.34,-23.586 -0.03,-25.217 0.062,-0.324 0.282,-0.594 0.588,-0.717 0.306,-0.122 0.651,-0.083 0.921,0.107 2.419,1.71 9.428,5.411 13.857,7.131 0.498,0.194 0.746,0.754 0.553,1.253 -0.193,0.499 -0.734,0.43 -1.253,0.552 -3.907,0.922 -9.772,9.208 -12.796,16.288 -0.21,0.491 -0.11,1.055 -0.618,1.221 -0.101,0.032 -0.202,0.048 -0.302,0.048 z"
       style="fill:#4d1b19" /><path
       inkscape:connector-curvature="0"
       id="path15"
       d="m 70.167,110.287 c -21.757,0 -39.457,-17.366 -39.457,-38.71 0,-21.344 17.7,-38.709 39.457,-38.709 21.756,0 39.456,17.365 39.456,38.709 0,21.344 -17.7,38.71 -39.456,38.71 z"
       style="fill:#c4482e" /><path
       inkscape:connector-curvature="0"
       id="path17"
       d="m 70.635,32.867 c 21,0 39.455,17.365 39.455,38.709 0,21.344 -18.455,38.711 -39.455,38.711 l 0,-77.42 z"
       style="fill:#ad4029" /><path
       inkscape:connector-curvature="0"
       id="path19"
       d="m 47.783,84.667 c 4.504,8 12.565,12.931 22.384,12.931 9.817,0 17.88,-4.931 22.383,-12.931 l -44.767,0 z"
       style="fill:#8e9aa6" /><path
       inkscape:connector-curvature="0"
       id="path21"
       d="m 70.167,98.746 c -10.573,0 -19.153,-5.029 -23.54,-13.796 -0.15,-0.3 -0.135,-0.597 0.042,-0.882 0.176,-0.285 0.487,-0.4 0.823,-0.4 l 45.35,0 c 0.336,0 0.646,0.115 0.822,0.4 0.178,0.285 0.193,0.611 0.044,0.912 C 89.32,93.746 80.74,98.746 70.167,98.746 Z M 49.117,85.417 c 4.234,7.47 11.816,11.576 21.05,11.576 9.234,0 16.813,-4.105 21.05,-11.576 l -42.1,0 z"
       style="fill:#1a1919" /><g
       id="g23"><path
         inkscape:connector-curvature="0"
         id="path25"
         d="m 52.699,61.483 c -1.402,0.534 -2.543,1.493 -3.297,2.773 -0.861,1.464 -1.096,3.172 -0.656,4.807 0.445,1.664 1.527,3.054 3.048,3.916 3.131,1.767 7.147,0.718 8.954,-2.343 0.746,-1.271 1.021,-2.707 0.797,-4.146 l -8.846,-5.007 z"
         style="fill:#dce7bd" /><path
         inkscape:connector-curvature="0"
         id="path27"
         d="m 55.058,75.285 c -1.347,0.001 -2.711,-0.334 -3.959,-1.041 -1.856,-1.051 -3.18,-2.752 -3.728,-4.791 -0.538,-2.013 -0.252,-4.113 0.81,-5.914 0.906,-1.539 2.332,-2.74 4.015,-3.381 0.498,-0.191 1.06,0.061 1.25,0.56 0.189,0.5 -0.062,1.058 -0.561,1.249 -1.292,0.493 -2.343,1.376 -3.037,2.556 -0.795,1.35 -1.01,2.923 -0.605,4.43 0.41,1.533 1.408,2.814 2.811,3.607 2.885,1.629 6.588,0.662 8.252,-2.159 0.688,-1.172 0.941,-2.494 0.734,-3.822 -0.082,-0.528 0.277,-1.022 0.807,-1.105 0.525,-0.08 1.023,0.28 1.105,0.807 0.276,1.774 -0.062,3.538 -0.979,5.102 -1.477,2.503 -4.161,3.902 -6.915,3.902 z"
         style="fill:#1a1919" /><path
         inkscape:connector-curvature="0"
         id="path29"
         d="m 64.838,69.003 c -0.161,0 -0.325,-0.041 -0.477,-0.125 L 49.211,60.3 c -0.467,-0.263 -0.631,-0.854 -0.366,-1.318 0.263,-0.465 0.854,-0.629 1.317,-0.366 l 15.152,8.578 c 0.467,0.263 0.629,0.853 0.365,1.318 -0.175,0.315 -0.503,0.491 -0.841,0.491 z"
         style="fill:#1a1919" /><circle
         id="circle31"
         r="1.693"
         cy="68.125"
         cx="57.549999"
         style="fill:#1a1919" /></g><g
       id="g33"><path
         inkscape:connector-curvature="0"
         id="path35"
         d="m 87.625,61.483 c 1.402,0.534 2.543,1.493 3.296,2.773 0.862,1.464 1.095,3.172 0.657,4.807 -0.445,1.664 -1.527,3.054 -3.049,3.916 -3.131,1.767 -7.148,0.718 -8.953,-2.343 -0.746,-1.271 -1.022,-2.707 -0.797,-4.146 l 8.846,-5.007 z"
         style="fill:#dce7bd" /><path
         inkscape:connector-curvature="0"
         id="path37"
         d="m 85.267,75.285 c 1.347,0.001 2.711,-0.334 3.959,-1.041 1.856,-1.051 3.181,-2.752 3.728,-4.791 0.539,-2.013 0.252,-4.113 -0.81,-5.914 -0.905,-1.539 -2.332,-2.74 -4.015,-3.381 -0.498,-0.191 -1.059,0.061 -1.249,0.56 -0.19,0.5 0.062,1.058 0.56,1.249 1.293,0.493 2.344,1.376 3.037,2.556 0.795,1.35 1.01,2.923 0.605,4.43 -0.411,1.533 -1.408,2.814 -2.811,3.607 -2.885,1.629 -6.588,0.662 -8.252,-2.159 -0.688,-1.172 -0.941,-2.494 -0.734,-3.822 0.082,-0.528 -0.277,-1.022 -0.807,-1.105 -0.525,-0.08 -1.023,0.28 -1.105,0.807 -0.276,1.774 0.062,3.538 0.979,5.102 1.476,2.503 4.161,3.902 6.915,3.902 z"
         style="fill:#1a1919" /><path
         inkscape:connector-curvature="0"
         id="path39"
         d="m 75.486,69.003 c 0.162,0 0.325,-0.041 0.476,-0.125 L 91.113,60.3 c 0.467,-0.263 0.631,-0.854 0.367,-1.318 -0.264,-0.465 -0.855,-0.629 -1.318,-0.366 L 75.01,67.194 c -0.466,0.263 -0.63,0.853 -0.366,1.318 0.176,0.315 0.504,0.491 0.842,0.491 z"
         style="fill:#1a1919" /><circle
         id="circle41"
         r="1.693"
         cy="68.125"
         cx="82.775002"
         style="fill:#1a1919" /></g></g></svg>