<?xml version="1.0" encoding="iso-8859-1"?>
<!-- Generator: Adobe Illustrator 16.0.0, SVG Export Plug-In . SVG Version: 6.00 Build 0)  -->
<!DOCTYPE svg PUBLIC "-//W3C//DTD SVG 1.1//EN" "http://www.w3.org/Graphics/SVG/1.1/DTD/svg11.dtd">
<svg version="1.1" id="Capa_1" xmlns="http://www.w3.org/2000/svg" xmlns:xlink="http://www.w3.org/1999/xlink" x="0px" y="0px"
	 width="544px" height="544px" viewBox="0 0 544 544" style="enable-background:new 0 0 544 544;" xml:space="preserve">
<g>
	<path d="M528,64c0-22.758-4.762-44.4-13.326-64c-16.787,38.418-48.225,68.966-87.246,84.589C384.33,51.609,330.459,32,272,32
		S159.67,51.609,116.573,84.589C77.549,68.966,46.114,38.418,29.326,0C20.762,19.6,16,41.242,16,64
		c0,36.787,12.425,70.664,33.294,97.689C28.109,198.96,16,242.064,16,288c0,141.385,114.615,256,256,256s256-114.615,256-256
		c0-45.936-12.109-89.04-33.295-126.311C515.574,134.664,528,100.787,528,64z M304.047,222.258
		c1.016-23.727,22.605-39.474,40.797-48.569c17.371-8.686,34.551-13.03,35.273-13.211c8.572-2.144,17.26,3.069,19.402,11.642
		c2.143,8.573-3.068,17.259-11.643,19.403c-8.812,2.225-19.262,6.06-28.469,10.675c5.324,5.715,8.588,13.376,8.588,21.803
		c0,17.673-14.326,32-32,32s-32-14.327-32-32C303.998,223.416,304.016,222.835,304.047,222.258z M144.479,172.12
		c2.144-8.573,10.83-13.786,19.403-11.642c0.723,0.181,17.903,4.526,35.274,13.211c18.19,9.096,39.78,24.842,40.796,48.569
		c0.031,0.577,0.049,1.157,0.049,1.742c0,17.673-14.327,32-32,32s-32-14.327-32-32c0-8.427,3.263-16.088,8.587-21.803
		c-9.207-4.615-19.655-8.45-28.468-10.675C147.549,189.379,142.337,180.692,144.479,172.12z M272,448
		c-58.255,0-109.232-31.137-137.213-77.672l41.164-24.698C195.538,378.204,231.222,400,272,400c40.777,0,76.463-21.796,96.049-54.37
		l41.164,24.698C381.232,416.863,330.256,448,272,448z"/>
</g>
<g>
</g>
<g>
</g>
<g>
</g>
<g>
</g>
<g>
</g>
<g>
</g>
<g>
</g>
<g>
</g>
<g>
</g>
<g>
</g>
<g>
</g>
<g>
</g>
<g>
</g>
<g>
</g>
<g>
</g>
</svg>
